<svg width="92" height="92" viewBox="0 0 92 92" fill="none" xmlns="http://www.w3.org/2000/svg">
<circle cx="46" cy="46" r="46" fill="white"/>
<path d="M70.3157 27.3333H37.5494V33.2861H24.1854L18 43.7988V59.144H22.941C23.3484 60.7233 24.2767 62.1236 25.5795 63.1237C26.8822 64.1237 28.485 64.6666 30.1349 64.6666C31.7847 64.6666 33.3876 64.1237 34.6903 63.1237C35.993 62.1236 36.9213 60.7233 37.3287 59.144H54.0215C54.4289 60.7233 55.3572 62.1236 56.6599 63.1237C57.9626 64.1237 59.5655 64.6666 61.2153 64.6666C62.8652 64.6666 64.468 64.1237 65.7707 63.1237C67.0734 62.1236 68.0018 60.7233 68.4092 59.144H74V27.3333H70.3218H70.3157ZM26.3065 36.9195H37.5494V42.5634H22.99L26.3065 36.9195ZM21.6782 46.1787H37.5494V55.5106H37.3287C36.9213 53.9313 35.993 52.531 34.6903 51.5309C33.3876 50.5308 31.7847 49.9879 30.1349 49.9879C28.485 49.9879 26.8822 50.5308 25.5795 51.5309C24.2767 52.531 23.3484 53.9313 22.941 55.5106H21.6782V46.1787ZM30.1379 61.0334C29.3944 61.0334 28.6677 60.8155 28.0495 60.4074C27.4314 59.9992 26.9498 59.4191 26.6655 58.7404C26.3813 58.0618 26.3072 57.3151 26.4527 56.5948C26.5982 55.8745 26.9567 55.2131 27.4829 54.6942C28.0091 54.1753 28.6792 53.8222 29.4086 53.6797C30.1379 53.5371 30.8937 53.6115 31.5803 53.8934C32.2668 54.1753 32.8533 54.652 33.2655 55.2633C33.6776 55.8745 33.897 56.5928 33.8958 57.3273C33.8958 58.3118 33.4999 59.256 32.7951 59.9522C32.0904 60.6483 31.1346 61.0395 30.1379 61.0395V61.0334ZM61.2123 61.0334C60.4688 61.0334 59.742 60.8155 59.1239 60.4074C58.5058 59.9992 58.0241 59.4191 57.7399 58.7404C57.4556 58.0618 57.3816 57.3151 57.5271 56.5948C57.6726 55.8745 58.0311 55.2131 58.5572 54.6942C59.0834 54.1753 59.7536 53.8222 60.4829 53.6797C61.2123 53.5371 61.968 53.6115 62.6546 53.8934C63.3411 54.1753 63.9276 54.652 64.3398 55.2633C64.752 55.8745 64.9713 56.5928 64.9701 57.3273C64.9701 58.3118 64.5742 59.256 63.8695 59.9522C63.1647 60.6483 62.2089 61.0395 61.2123 61.0395V61.0334ZM68.4031 55.5106C67.9957 53.9313 67.0673 52.531 65.7646 51.5309C64.4619 50.5308 62.859 49.9879 61.2092 49.9879C59.5593 49.9879 57.9565 50.5308 56.6538 51.5309C55.3511 52.531 54.4227 53.9313 54.0153 55.5106H41.2276V30.9667H70.3157V55.5106H68.4031Z" fill="#0B0B0B"/>
<path d="M64.51 40.8562H45.3039V44.4896H64.51V40.8562Z" fill="#0B0B0B"/>
<path d="M51.6365 46.9114H45.3039V50.5448H51.6365V46.9114Z" fill="#0B0B0B"/>
<path d="M58.3798 34.7994H45.3039V38.4328H58.3798V34.7994Z" fill="#0B0B0B"/>
</svg>
