<svg width="92" height="92" viewBox="0 0 92 92" fill="none" xmlns="http://www.w3.org/2000/svg">
<circle cx="46" cy="46" r="46" fill="white"/>
<path d="M39.463 67L35.8106 59.7241C34.7402 60.0082 33.6491 59.7575 32.9461 59.0577C32.2185 58.3261 31.9931 57.2534 32.2772 56.191L25.0002 52.5403L28.2312 49.3079L35.8479 50.0212L42.5734 42.3605L25.1327 31.9125L30.3435 26.7019L50.9193 33.881L57.9257 26.8741C59.0652 25.7355 60.8902 25 62.5771 25C63.8832 25 64.9941 25.4197 65.7884 26.214C67.8141 28.2396 67.0976 32.1029 65.1298 34.0746L58.1194 41.0823L65.2996 61.657L60.0896 66.8691L49.6418 49.43L41.9823 56.1552L42.694 63.7715L39.463 67ZM50.2171 45.7572L60.5625 63.028L62.5589 61.0309L55.3787 40.4554L63.4452 32.3925C64.5688 31.2666 65.0909 28.8839 64.1046 27.8969C63.6777 27.47 63.0374 27.3803 62.5764 27.3803C61.5044 27.3803 60.3118 27.8532 59.6079 28.557L51.5446 36.6207L30.9695 29.4417L28.9723 31.4388L46.2449 41.786L36.8342 52.5046L29.1231 51.7834L29.0144 51.8921L35.5828 55.1865L34.8116 56.3116C34.5093 56.7535 34.4728 57.2185 34.6299 57.3756C34.7029 57.4478 34.8322 57.4636 34.9274 57.4636C35.1623 57.4636 35.4416 57.3652 35.6939 57.1931L36.8183 56.425L40.112 62.9868L40.2215 62.8781L39.5003 55.1674L50.2171 45.7572Z" fill="#004F98" stroke="#004F98"/>
</svg>
