<svg width="92" height="92" viewBox="0 0 92 92" fill="none" xmlns="http://www.w3.org/2000/svg">
<circle cx="46" cy="46" r="46" fill="white"/>
<path d="M59.3588 41.3326V31.9996H63.8117V27.3332H48.2265V22.6667H43.7735V27.3332H28.1883V31.9996H32.6412V41.3326H22.6667L30.9714 63.0783L30.6819 62.845C28.7998 60.9988 26.3133 59.9799 23.7354 59.9985V64.6649C24.5106 64.6582 25.2792 64.8159 25.9947 65.1287C26.7103 65.4414 27.358 65.9028 27.8988 66.4849C29.7944 68.3165 32.2782 69.3334 34.8565 69.3334C37.4349 69.3334 39.9187 68.3165 41.8142 66.4849C42.3607 65.9071 43.011 65.4485 43.7275 65.1355C44.444 64.8226 45.2126 64.6614 45.9889 64.6614C46.7651 64.6614 47.5337 64.8226 48.2502 65.1355C48.9667 65.4485 49.617 65.9071 50.1635 66.4849C52.0614 68.3114 54.5443 69.325 57.1212 69.325C59.698 69.325 62.181 68.3114 64.0789 66.4849C64.6231 65.901 65.2746 65.4387 65.994 65.126C66.7134 64.8132 67.4858 64.6563 68.2646 64.6649V59.9985C65.6794 59.9763 63.1847 60.9952 61.2958 62.845L61.0286 63.055L69.3333 41.3326H59.3588ZM37.0941 31.9996H54.9058V41.3326H37.0941V31.9996ZM39.0312 62.845C38.2585 63.6024 37.3287 64.1615 36.3149 64.4783L29.257 45.9991H43.7735V60.2318C42.008 60.6706 40.3768 61.5694 39.0312 62.845ZM48.2265 60.2318V45.9991H62.743L55.6851 64.5016C54.6609 64.1821 53.7228 63.6146 52.9466 62.845C51.6067 61.5737 49.9837 60.6752 48.2265 60.2318Z" fill="#0B0B0B"/>
</svg>
