<svg width="92" height="92" viewBox="0 0 92 92" fill="none" xmlns="http://www.w3.org/2000/svg">
<circle cx="46" cy="46" r="46" fill="white"/>
<path d="M62.3333 25H29.6667V57.9897H32.77L29.8096 65.4742L33.6071 67L34.73 64.1753H57.1883L58.3112 67L62.1087 65.4742L59.23 57.9897H62.3333V25ZM58.25 29.1237V31.1856H33.75V29.1237H58.25ZM33.75 45.6186H58.25V53.866H33.75V45.6186ZM33.75 41.4948V35.3093H58.25V41.4948H33.75ZM55.6367 60.0515H36.3633L37.18 57.9897H54.8404L55.6367 60.0515Z" fill="#0B0B0B"/>
<path d="M39.875 47.6805H35.7917V51.8042H39.875V47.6805Z" fill="#0B0B0B"/>
<path d="M56.2083 47.6805H52.125V51.8042H56.2083V47.6805Z" fill="#0B0B0B"/>
</svg>
