<svg width="34" height="34" viewBox="0 0 34 34" fill="none" xmlns="http://www.w3.org/2000/svg">
<path d="M5.98543 25.9473C4.99376 24.7165 4.2205 23.3377 3.66564 21.811C3.11077 20.2842 2.83334 18.6687 2.83334 16.9645C2.83334 13.2482 4.05522 10.0528 6.49897 7.37801C8.94272 4.70327 11.9708 3.18837 15.5833 2.83331V5.67375C12.75 6.00513 10.3889 7.23599 8.50001 9.36631C6.61112 11.4966 5.66668 14.0294 5.66668 16.9645C5.66668 18.29 5.86737 19.5386 6.26876 20.7103C6.67015 21.882 7.24862 22.9531 8.00418 23.9235L5.98543 25.9473ZM17 31.1666C15.2764 31.1666 13.6472 30.8826 12.1125 30.3145C10.5778 29.7464 9.19654 28.9535 7.96876 27.9357L9.95209 25.9118C10.9201 26.6693 12.0004 27.261 13.1927 27.6871C14.3851 28.1132 15.6542 28.3262 17 28.3262C18.3458 28.3262 19.6149 28.1132 20.8073 27.6871C21.9997 27.261 23.0799 26.6693 24.0479 25.9118L26.0313 27.9357C24.8035 28.9535 23.4222 29.7464 21.8875 30.3145C20.3528 30.8826 18.7236 31.1666 17 31.1666ZM28.0146 25.9473L25.9958 23.9235C26.7514 22.9531 27.3299 21.882 27.7313 20.7103C28.1326 19.5386 28.3333 18.29 28.3333 16.9645C28.3333 14.0294 27.3889 11.4966 25.5 9.36631C23.6111 7.23599 21.25 6.00513 18.4167 5.67375V2.83331C22.0292 3.18837 25.0573 4.70327 27.5011 7.37801C29.9448 10.0528 31.1667 13.2482 31.1667 16.9645C31.1667 18.6687 30.8892 20.2842 30.3344 21.811C29.7795 23.3377 29.0063 24.7165 28.0146 25.9473ZM13.4583 23.3555V10.5735L23.375 16.9645L13.4583 23.3555Z" fill="white"/>
</svg>
